<svg width="121" height="32" viewBox="0 0 121 32" fill="none" xmlns="http://www.w3.org/2000/svg">
<path d="M113.305 20.2603C112.152 20.2603 111.544 19.7147 111.544 18.7933C111.569 17.1809 113.245 16.611 116.05 16.2838V17.3141C116.05 19.2904 114.775 20.2603 113.305 20.2603ZM73.7277 20.0663C71.8817 20.0663 70.7158 18.7205 70.7158 16.1383C70.7158 13.5195 71.9061 12.1131 73.7277 12.1131C75.525 12.1131 76.7272 13.5195 76.7272 16.1383C76.7272 18.7205 75.5613 20.0663 73.7277 20.0663ZM100.348 20.1631C98.5138 20.1631 97.2993 18.7689 97.2993 16.0897C97.2993 13.4105 98.5138 11.9918 100.348 11.9918C102.205 11.9918 103.371 13.2285 103.371 16.0897C103.371 18.9509 102.205 20.1631 100.348 20.1631ZM58.1465 22.2847H61.3769V17.1565C61.3769 14.1015 62.4699 12.9498 65.0931 12.9498C65.5546 12.9498 66.0162 12.9739 66.4534 13.0345V9.71262C66.1862 9.67635 65.9189 9.66419 65.6761 9.66419C63.3202 9.66419 61.9965 11.0584 61.3163 12.6708V9.89451H58.1466L58.1465 22.2847ZM86.9404 22.6365C90.4256 22.6365 92.5145 21.0483 92.5145 18.5992C92.5145 16.4413 90.8388 15.2411 88.264 14.744L86.6123 14.4409C85.1795 14.1622 84.8029 13.8348 84.8029 13.1195C84.8029 12.3556 85.4709 11.81 86.7216 11.81C88.0574 11.81 88.9682 12.5739 89.3569 13.6407L92.053 12.4526C91.4822 10.9978 89.8183 9.53074 86.8673 9.53074C83.7706 9.51858 81.6697 11.1068 81.6939 13.4103C81.7304 15.7865 83.1149 16.611 85.7622 17.1565L87.4501 17.4959C88.7374 17.7505 89.1747 18.2113 89.1747 18.9266C89.1747 19.7509 88.4217 20.2843 87.0858 20.2843C85.0942 20.2843 84.3777 19.1691 84.1471 18.1507L81.1959 19.0963C81.7182 21.2908 84.0742 22.6365 86.9404 22.6365ZM73.7275 22.6728C77.4192 22.6607 80.091 19.9812 80.091 16.0897C80.091 12.2223 77.4193 9.53074 73.7275 9.53074C70.0357 9.53074 67.3638 12.2223 67.3518 16.0897C67.3518 19.86 70.0843 22.6728 73.7275 22.6728ZM112.2 22.6728C114.143 22.6728 115.552 21.6786 116.402 20.2725C116.463 21.606 117.216 22.2848 118.636 22.2848H121.126V19.7753H119.985C119.329 19.7753 119.244 19.6663 119.244 19.0357V14.2227C119.244 11.1312 117.337 9.53074 113.852 9.53074C110.464 9.50642 108.302 11.325 108.083 13.2407L111.022 13.9438C111.35 12.7192 112.225 11.9193 113.876 11.9193C115.358 11.9193 116.05 12.5739 116.05 13.7741V14.2227C114.01 14.4165 112.334 14.7924 111.034 15.3623C109.285 16.0654 108.253 17.29 108.253 19.1085C108.253 21.2542 109.917 22.6728 112.2 22.6728ZM94.2026 27.1224H97.4452V20.5755C98.1495 21.6907 99.5338 22.6728 101.392 22.6728C104.622 22.6728 106.76 19.9934 106.76 16.0897C106.76 12.1861 104.622 9.4823 101.392 9.50642C99.4731 9.51858 98.0403 10.5734 97.3479 11.6039V9.8944H94.2027L94.2026 27.1224ZM46.1241 13.1436V7.78505H49.6823C51.6376 7.78505 52.8761 8.82772 52.8761 10.4279C52.8761 12.1131 51.6496 13.1436 49.6823 13.1436H46.1241ZM42.6993 22.2848H46.1241V16.0048H50.2895C53.9449 16.017 56.4586 13.7741 56.4464 10.4279C56.4586 7.10605 53.9449 4.88747 50.2773 4.89942H42.6993V22.2848ZM32.5465 20.1513V3.5781C32.5465 3.31151 32.3763 3.17816 32.1214 3.28719L27.3852 5.19075C27.1908 5.27545 27.1058 5.39675 27.1058 5.60295V16.9142C27.1058 17.1204 27.0209 17.2416 26.8265 17.3264L5.72002 25.8495C5.52565 25.9342 5.44059 26.0555 5.44059 26.2617V30.9293C5.44059 31.1959 5.61081 31.3292 5.86567 31.2202L32.2671 20.5635C32.4615 20.4786 32.5465 20.3573 32.5465 20.1513ZM0.00012207 11.1069V27.6799C0.00012207 27.9467 0.170134 28.0801 0.425202 27.971L5.16147 26.0674C5.35584 25.9825 5.4407 25.8612 5.4407 25.6552V14.3439C5.4407 14.1377 5.52575 14.0165 5.72013 13.9315L26.8265 5.4088C27.0209 5.32389 27.1058 5.2026 27.1058 4.9966V0.329008C27.1058 0.0622093 26.9357 -0.0709325 26.6807 0.0380954L0.279345 10.6948C0.0852826 10.7795 0.00012207 10.9007 0.00012207 11.1069Z"/>
</svg>
