<svg width="22" height="22" viewBox="0 0 22 22" fill="none" xmlns="http://www.w3.org/2000/svg">
      <style>
    path, line {
      stroke: black;
    }
    @media (prefers-color-scheme: dark) {
      path, line {
        stroke: white;
      }
    }
  </style>
<path d="M9.174 11C6.39 9.234 6 7.685 6 6.352C6 4.352 7.213 3.089 10.217 2.352C13.086 1.648 17 1.852 17 4.352C17 5.466 15.435 7 13.348 8.5C12.0329 9.45446 10.6361 10.291 9.174 11Z" stroke="black" stroke-width="2" stroke-linecap="round" stroke-linejoin="round"/>
<path d="M9.174 11C6.39 12.766 6 14.315 6 15.648C6 17.648 7.213 18.911 10.217 19.648C13.086 20.352 17 20.148 17 17.648C17 16.534 15.435 15 13.348 13.5C11.957 12.5 10.565 11.667 9.174 11Z" stroke="black" stroke-width="2" stroke-linecap="round" stroke-linejoin="round"/>
<line x1="10" y1="6" x2="10" y2="16" stroke-width="2" stroke-linecap="round"/>

</svg>
